{"title":"Santa Buddies (2009) MPEG-4 (IPOD)(NL SUBS) 2Lions-Team","uid":5151773,"size":1083222280,"categoryP":"video","categoryS":"handheld","magnet":"?xt=urn:btih:1aebe06aca328cf0398eac4f50b23e96daadd5be&amp;dn=Santa+Buddies+%282009%29+MPEG-4+%28IPOD%29%28NL+SUBS%29+2Lions-Team&amp;tr=udp%3A%2F%2Ftracker.openbittorrent.com%3A80&amp;tr=udp%3A%2F%2Fopen.demonii.com%3A1337&amp;tr=udp%3A%2F%2Ftracker.coppersurfer.tk%3A6969&amp;tr=udp%3A%2F%2Fexodus.desync.com%3A6969","seeders":1,"leechers":0,"uploader":"Pioen","files":-1,"time":1257603586,"description":"Santa Buddies (2009) MPEG-4 (IPOD)\n\n\n\nVerenigde Staten / Canada\nFamilie / Komedie\n\ngeregisseerd door Robert Vince\nmet George Wendt, Christopher Lloyd en Danny Woodburn\n\nNederlands:\nPuppy Paws, het zoontje van Santa Paws, \nis de Noordpool nogal zat en gaat op zoek naar andere hondjes, \nzodat hij kan leren om normaal te zijn en hij ontmoet Budderball. \nMaar dan begint de magische kerst ijspegel te smelten en mensen vergeten \nlangzaam maar zeker de echte gedachte rondom deze feestdagen. \nHet is nu aan Puppy Paws en zijn nieuwe vriendjes om kerst te redden.\n\nEngels:\nThe buddies are off on a jolly new adventure when Puppy Paws,\npup of the legendary Santa Paws, and his friends travel to\nthe North Pole to save Christmas from disaster.\n\n\nAudio : English\nSubs  : Dutch (hardcoded)\nBron : Santa Buddies (2009) NTSC dvd5\n[code]\nFormat                           : MPEG-4\nFormat profile                   : Base Media\nCodec ID                         : isom\nFile size                        : 1.01 GiB\nDuration                         : 1h 28mn\nOverall bit rate                 : 1 632 Kbps\n\n\nVideo\nID                               : 1\nFormat                           : MPEG-4 Visual\nFormat profile                   : Simple@L1\nFormat settings, BVOP            : No\nFormat settings, QPel            : No\nFormat settings, GMC             : No warppoints\nFormat settings, Matrix          : Default (H.263)\nCodec ID                         : 20\nDuration                         : 1h 28mn\nBit rate mode                    : Variable\nBit rate                         : 1 500 Kbps\nWidth                            : 720 pixels\nHeight                           : 406 pixels\nDisplay aspect ratio             : 16/9\nFrame rate mode                  : Constant\nFrame rate                       : 23.976 fps\nResolution                       : 24 bits\nColorimetry                      : 4:2:0\nScan type                        : Progressive\nBits/(Pixel*Frame)               : 0.214\nStream size                      : 949 MiB (92%)\nWriting library                  : Lavc51.40.4\n\nAudio\nID                               : 2\nFormat                           : AAC\nFormat/Info                      : Advanced Audio Codec\nFormat version                   : Version 4\nFormat profile                   : LC\nFormat settings, SBR             : No\nCodec ID                         : 40\nDuration                         : 1h 28mn\nBit rate mode                    : Variable\nBit rate                         : 128 Kbps\nChannel(s)                       : 2 channels\nChannel positions                : L R\nSampling rate                    : 48.0 KHz\nResolution                       : 16 bits\nStream size                      : 81.0 MiB (8%)[/code]\n &lt;a href=&quot;\nhttp://moviemeter.nl/film/57945&quot; rel=&quot;nofollow&quot; target=&quot;_NEW&quot;&gt;\nhttp://moviemeter.nl/film/57945&lt;/a&gt; &lt;a href=&quot;\nhttp://www.imdb.com/title/tt1328875&quot; rel=&quot;nofollow&quot; target=&quot;_NEW&quot;&gt;\nhttp://www.imdb.com/title/tt1328875&lt;/a&gt;\n\n[b]***************************************** \n\nBrought to you by \nPioen \n2Lions Team \n\n\n\nmeer zien?? \nKom dan eens kijken op ons forum \n        &lt;a href=&quot;\nhttp://www.2lions.ons-forum.nl&quot; rel=&quot;nofollow&quot; target=&quot;_NEW&quot;&gt;\nhttp://www.2lions.ons-forum.nl&lt;/a&gt; \n2Lions-Team for all your Dutch MOVIES and more \n\n*****************************************\n\nDON T HIT AND RUN Niet gelijk afhaken als de film binnen is blijf seeden.","torrent":{"xt":"urn:btih:1aebe06aca328cf0398eac4f50b23e96daadd5be","amp;dn":"Santa+Buddies+%282009%29+MPEG-4+%28IPOD%29%28NL+SUBS%29+2Lions-Team","amp;tr":["udp%3A%2F%2Ftracker.openbittorrent.com%3A80","udp%3A%2F%2Fopen.demonii.com%3A1337","udp%3A%2F%2Ftracker.coppersurfer.tk%3A6969","udp%3A%2F%2Fexodus.desync.com%3A6969"],"infoHash":"1aebe06aca328cf0398eac4f50b23e96daadd5be","infoHashBuffer":{"type":"Buffer","data":[26,235,224,106,202,50,140,240,57,142,172,79,80,178,62,150,218,173,213,190]},"announce":[],"urlList":[]}}